<svg width="26" height="30" viewBox="0 0 26 30" fill="none" xmlns="http://www.w3.org/2000/svg">
<path d="M20.6365 4.30745C19.2913 3.22561 17.7135 2.4442 16.0169 2.01958C14.3203 1.59496 12.5472 1.53771 10.8254 1.85197C8.61137 2.26504 6.56807 3.28162 4.93877 4.7806C3.30948 6.27959 2.16289 8.19779 1.63559 10.3067C1.10828 12.4156 1.2225 14.6263 1.96462 16.6755C2.70674 18.7248 4.04547 20.5261 5.82137 21.8649C7.84967 23.324 9.57077 25.1412 10.8926 27.2192L11.7927 28.692C11.907 28.8791 12.0696 29.0346 12.2648 29.1434C12.46 29.2522 12.6812 29.3105 12.9067 29.3128C13.1322 29.3152 13.3544 29.2613 13.5518 29.1565C13.7492 29.0518 13.915 28.8996 14.0332 28.7149L14.9247 27.3183C16.1143 25.3531 17.7264 23.6549 19.6532 22.3371C21.1635 21.3598 22.4167 20.0581 23.3139 18.5347C24.2112 17.0113 24.7279 15.308 24.8234 13.559C24.9189 11.81 24.5905 10.0633 23.8641 8.45669C23.1377 6.85009 22.0333 5.42749 20.6378 4.30118L20.6365 4.30745ZM13.0211 17.9992C11.987 17.9886 10.9791 17.6833 10.1249 17.1219C9.27067 16.5605 8.60857 15.7682 8.22217 14.8453C7.83587 13.9223 7.74267 12.91 7.95437 11.9366C8.16607 10.9631 8.67327 10.0721 9.41167 9.37629C10.1502 8.68039 11.0867 8.21099 12.103 8.02729C13.1193 7.84369 14.1696 7.95399 15.1211 8.34439C16.0726 8.73479 16.8826 9.38779 17.4487 10.2207C18.0148 11.0536 18.3115 12.029 18.3013 13.0237C18.2877 14.3574 17.7237 15.631 16.7335 16.5641C15.7432 17.4971 14.4079 18.0134 13.0211 17.9992Z" fill="#111111" fill-opacity="0.25"/>
<path d="M17.8896 7.9792C17.0323 7.2754 16.0265 6.7671 14.945 6.491C13.8635 6.2149 12.7332 6.1779 11.6355 6.3826C10.2241 6.6518 8.92141 7.3136 7.88251 8.2892C6.84371 9.2649 6.11251 10.5132 5.77611 11.8857C5.43961 13.2581 5.51211 14.6966 5.98501 16.03C6.45781 17.3634 7.31101 18.5354 8.44291 19.4064C9.73571 20.3556 10.8326 21.5379 11.675 22.8899L12.2485 23.8482C12.3214 23.9699 12.425 24.0711 12.5495 24.1419C12.6739 24.2126 12.8148 24.2506 12.9586 24.2521C13.1024 24.2535 13.2441 24.2185 13.3699 24.1503C13.4958 24.0821 13.6015 23.983 13.6768 23.8628L14.2453 22.9539C15.004 21.6749 16.0319 20.5696 17.2604 19.7118C18.2233 19.0756 19.0223 18.2284 19.5945 17.237C20.1667 16.2455 20.4964 15.137 20.5575 13.9989C20.6186 12.8608 20.4095 11.7242 19.9466 10.6788C19.4838 9.6334 18.7799 8.7078 17.8905 7.9751L17.8896 7.9792ZM13.0331 16.8899C12.3739 16.8831 11.7314 16.6846 11.1869 16.3194C10.6425 15.9542 10.2205 15.4387 9.97431 14.8382C9.72811 14.2376 9.66891 13.5789 9.80401 12.9454C9.93911 12.3119 10.2625 11.7321 10.7333 11.2791C11.2042 10.8262 11.8013 10.5206 12.4492 10.401C13.097 10.2813 13.7666 10.353 14.3731 10.6069C14.9796 10.8608 15.4959 11.2856 15.8567 11.8275C16.2174 12.3695 16.4064 13.0042 16.3998 13.6514C16.3909 14.5194 16.0312 15.3482 15.3999 15.9555C14.7685 16.5628 13.9171 16.8989 13.0331 16.8899Z" fill="#141718"/>
</svg>
