<svg width="94" height="101" viewBox="0 0 94 101" fill="none" xmlns="http://www.w3.org/2000/svg">
<g id="_&#195;&#131;&#226;&#128;&#152;&#195;&#131;&#194;&#171;&#195;&#131;&#194;&#174;&#195;&#131;&#194;&#169;_6" clip-path="url(#clip0_330_574)">
<path id="Vector" d="M8.87332 74.8216C7.0398 74.8629 6.12304 74.8835 5.47804 74.4687C4.88935 74.0902 4.14285 73.2075 4.39364 66.652C4.62578 60.5847 5.38865 58.1209 6.78835 56.2602C7.30828 55.5691 7.73163 55.206 8.00829 54.9951C9.46463 53.8842 11.0473 53.8328 14.1532 53.7752C19.8646 53.6694 20.6131 53.713 21.021 54.3625C21.4185 54.9954 20.9415 55.3264 20.6596 57.7965C20.5227 58.9958 20.2739 61.3306 20.8403 63.9414C21.039 64.8568 21.209 65.2127 21.4277 66.4716C21.7587 68.3768 21.6801 69.3529 21.6536 69.6344C21.5671 70.5515 21.4866 71.4041 20.8865 72.1945C20.4553 72.7622 19.9091 73.0965 19.2589 73.3846C17.3713 74.2212 16.2355 73.9468 13.2043 74.2883C11.0103 74.5355 10.7009 74.781 8.87365 74.822L8.87332 74.8216Z" fill="#FFD75D"/>
<g id="Group">
<path id="Vector_2" d="M58.492 87.9168C54.7113 87.0976 51.1536 86.5593 47.8815 86.2162C47.6415 84.4685 47.2351 83.1349 46.9326 82.2853C46.0666 79.852 45.3247 79.3114 43.9342 75.9639C43.5426 75.021 43.149 73.9356 42.7643 72.6276C41.991 69.9968 42.0227 69.0778 42.0528 68.6629C42.2873 65.4189 44.4754 64.5195 46.8308 60.7333C49.8757 55.8388 48.148 53.8072 51.2021 50.8722C53.1888 48.9631 55.67 48.0751 56.5337 47.7661C58.7342 46.9786 60.5773 46.8382 61.8653 46.772C68.7112 46.4204 78.0094 47.2311 79.9382 47.4046C78.3909 62.6575 76.8432 77.9104 75.2958 93.163C70.5981 91.2237 64.9685 89.3201 58.4916 87.9168H58.492Z" fill="#FCCE2C"/>
<path id="Vector_3" d="M51.8995 51.5114C53.6496 49.7087 55.9487 48.879 57.0868 48.5025C59.1501 47.8202 60.9267 47.6231 62.291 47.5291C64.5894 47.3709 67.1934 47.3343 69.7501 47.37C74.1303 47.4309 78.3035 47.7242 79.9042 47.7406C78.3827 62.7368 76.8612 77.7327 75.3397 92.7289C70.5877 91.2395 65.2469 89.6158 59.2952 88.5157C55.4445 87.8039 52.1405 87.2794 49.256 86.8309C48.9892 85.3775 48.8651 84.1903 48.5043 83.0983C48.4535 82.9451 48.4034 82.8024 48.3546 82.6698C47.6353 80.722 46.7847 80.0118 46.1109 78.2765C45.8502 77.605 45.7111 76.9475 45.5143 76.0881C45.4086 75.6261 45.3002 75.1196 45.1646 74.5319C45.0199 73.9039 44.8254 73.2553 44.6146 72.5661C43.8435 70.0483 43.6906 69.0562 43.781 68.4158C44.1719 65.6485 45.8699 64.8028 47.7486 62.0224C47.9742 61.6861 48.1949 61.3273 48.4152 60.9436C51.0466 56.3637 49.1581 54.335 51.8992 51.5111L51.8995 51.5114Z" fill="#FAC828"/>
<path id="Vector_4" d="M52.5968 52.1505C54.1111 50.4562 56.2252 49.6795 57.6399 49.2392C59.5586 48.6416 61.2765 48.4098 62.7171 48.2867C64.9219 48.0981 67.4384 47.9377 69.9801 47.9878C73.95 48.0664 77.9239 48.1571 79.8707 48.0768C78.3754 62.816 76.8797 77.5555 75.3844 92.2947C70.578 91.2552 65.5175 89.938 60.0998 89.1149C56.1741 88.5183 53.1291 87.9994 50.6316 87.4461C50.3029 86.0297 50.3805 84.8447 49.9372 83.5053C49.8841 83.3449 49.8305 83.1946 49.7774 83.0545C48.9821 80.9675 47.8742 80.2983 47.3329 78.4877C47.1005 77.7097 47.1332 77.071 47.0956 76.2128C47.0753 75.7469 47.0494 75.2273 46.9682 74.5879C46.8801 73.896 46.6906 73.2121 46.4656 72.5055C45.6991 70.1003 45.3518 69.0366 45.5102 68.1692C45.9925 65.5287 47.7167 64.8751 49.4094 62.1975C49.6173 61.8685 49.8098 61.5201 50.0004 61.1544C52.2219 56.8931 50.1703 54.8661 52.5971 52.1502L52.5968 52.1505Z" fill="#F9C123"/>
<path id="Vector_5" d="M53.2932 52.7893C54.5733 51.2056 56.4992 50.4758 58.1923 49.9755C59.8853 49.4752 61.6252 49.1982 63.1421 49.0437C65.2539 48.8286 67.6807 48.6767 70.209 48.6053C73.7693 48.5051 77.5431 48.5892 79.8356 48.4131C78.3662 62.8956 76.8971 77.3781 75.4276 91.8606C70.5672 91.2709 65.7797 90.287 60.9026 89.7137C56.8973 89.2429 54.1156 88.7194 52.0058 88.0606C51.6148 86.6812 51.8941 85.4986 51.3689 83.9116C51.3133 83.7436 51.2563 83.5862 51.1987 83.4385C50.3278 81.2124 48.9759 80.5785 48.5532 78.6979C48.3538 77.8109 48.5548 77.1931 48.6747 76.3366C48.7405 75.8664 48.7974 75.3334 48.7696 74.6429C48.7388 73.8875 48.5542 73.1679 48.3145 72.4439C47.5549 70.1507 47.0029 69.0149 47.237 67.922C47.7772 65.4029 49.5544 64.9419 51.0681 62.372C51.2576 62.0502 51.423 61.713 51.5834 61.3649C53.3996 57.4265 51.182 55.4008 53.2932 52.7893Z" fill="#F7BB1F"/>
<path id="Vector_6" d="M53.9904 53.4284C55.0387 51.9587 56.7724 51.2665 58.7451 50.7119C60.3651 50.2564 61.975 49.9889 63.5675 49.8007C65.5861 49.5623 67.9238 49.3547 70.4383 49.2228C73.588 49.0575 77.1631 49.0218 79.8014 48.749C78.3581 62.9748 76.9149 77.2006 75.4713 91.4264C70.5565 91.2866 66.0379 90.6622 61.7059 90.3126C57.6178 89.9828 55.1029 89.439 53.3801 88.6755C52.9269 87.3334 53.4079 86.1528 52.8009 84.3186C52.7429 84.1434 52.6823 83.9784 52.6205 83.8232C51.6739 81.458 50.0886 80.8575 49.7743 78.9087C49.6135 77.9118 49.9792 77.3155 50.2549 76.461C50.4078 75.9869 50.5473 75.4404 50.5718 74.6982C50.599 73.879 50.4193 73.1237 50.1642 72.3827C49.4134 70.2005 48.6457 68.9914 48.9649 67.6752C49.5477 65.2736 51.3917 65.0081 52.7275 62.5469C52.8988 62.2316 53.0376 61.9061 53.1672 61.5755C54.5846 57.9644 52.1981 55.9397 53.9897 53.4281L53.9904 53.4284Z" fill="#F5B51A"/>
<path id="Vector_7" d="M54.688 54.0677C55.5085 52.7148 57.0437 52.0495 59.2986 51.4487C60.7674 51.0571 62.3256 50.7824 63.9941 50.5585C65.9203 50.2998 68.1679 50.0418 70.6687 49.8408C73.4085 49.6208 76.7838 49.4548 79.7679 49.0854C78.3505 63.0546 76.9335 77.0233 75.5161 90.9924C70.5469 91.3025 66.2945 91.0622 62.5102 90.9119C58.3374 90.7459 56.091 90.1595 54.7558 89.2905C54.2404 87.9855 54.9234 86.8071 54.2342 84.7254C54.1736 84.5427 54.1098 84.3705 54.0437 84.2078C53.0211 81.7037 51.2105 81.1363 50.9964 79.1198C50.8789 78.0128 51.4057 77.4395 51.8359 76.5856C52.0769 76.1076 52.2982 75.5477 52.3752 74.754C52.4609 73.871 52.2861 73.08 52.0153 72.322C51.275 70.2505 50.2797 68.9654 50.6942 67.4288C51.3111 65.1412 53.2284 65.0734 54.3887 62.7222C54.541 62.4138 54.6546 62.1005 54.7528 61.7865C55.7809 58.5071 53.2218 56.4843 54.688 54.0677Z" fill="#F3AF16"/>
<path id="Vector_8" d="M55.3852 54.7065C55.9837 53.4738 57.3127 52.8219 59.8515 52.1851C61.1687 51.8547 62.6761 51.5787 64.4195 51.3155C66.2534 51.0388 68.4127 50.7399 70.8984 50.4583C73.2293 50.1941 76.4039 49.887 79.734 49.4214C78.3428 63.1338 76.9516 76.8459 75.5605 90.5583C70.5373 91.3182 66.552 91.4859 63.3142 91.5107C59.0572 91.5435 57.0789 90.8795 56.1307 89.9054C55.5532 88.6374 56.4379 87.4613 55.6665 85.1321C55.6036 84.9418 55.5362 84.7621 55.4658 84.5922C54.3676 81.949 52.3373 81.4163 52.2178 79.3303C52.1481 78.114 52.8324 77.5636 53.4165 76.7097C53.7455 76.2287 54.05 75.6548 54.178 74.809C54.3241 73.8628 54.1532 73.0351 53.8657 72.2605C53.1375 70.2989 51.9019 68.9346 52.4224 67.1816C53.0688 65.0046 55.0614 65.1369 56.0489 62.8967C56.1821 62.5945 56.2715 62.2943 56.3373 61.9967C56.9882 59.0519 54.2553 57.0334 55.3852 54.7062V54.7065Z" fill="#F2A811"/>
<path id="Vector_9" d="M57.5052 90.5195C56.8655 89.2884 57.9518 88.1147 57.0986 85.5382C56.0096 82.25 53.4702 81.8355 53.4388 79.5404C53.4106 77.4655 55.4792 77.3483 55.9801 74.8639C56.6608 71.4883 53.2384 69.7376 54.1502 66.9343C54.8234 64.8644 56.891 65.1993 57.7082 63.0711C58.8781 60.0249 55.2225 57.8279 56.0816 55.3448C56.7767 53.3358 59.8462 52.8204 71.1273 51.075C73.0525 50.7771 76.0234 50.3187 79.699 49.7568C78.334 63.2122 76.9687 76.668 75.6037 90.1233C62.368 93.2773 58.4145 92.2702 57.5049 90.5192L57.5052 90.5195Z" fill="#F0A20D"/>
</g>
<path id="Vector_10" d="M28.4311 67.375C27.925 67.1432 25.8194 66.1793 24.6358 64.054C22.4696 60.1654 24.9573 55.2021 26.7368 51.6516C29.8043 45.5309 34.1023 41.6069 36.4285 39.5203C41.3371 35.1169 42.7352 35.5353 45.307 31.9973C48.517 27.5811 49.1983 22.9947 49.4413 21.2215C50.1786 15.8378 49.0022 11.5179 48.2213 9.29345C47.8985 7.47205 48.331 5.98723 49.238 5.56585C50.0558 5.18605 51.0541 5.76721 51.4067 5.9725C53.92 7.43603 54.5758 10.794 55.0666 13.4955C55.5145 15.9612 56.1411 19.4118 54.9988 23.6613C53.9268 27.6496 52.4325 28.1155 50.8645 32.0654C49.3025 35.9999 50.121 37.211 49.3057 43.4512C48.6132 48.7527 47.5688 56.1084 42.6638 62.2922C39.9388 65.7281 37.581 66.8367 36.293 67.3076C35.1169 67.7375 31.8389 68.9358 28.4311 67.3753V67.375Z" fill="#FFD75D"/>
<path id="Vector_11" d="M31.7522 79.8451C29.2858 79.4407 28.3124 78.652 27.8212 78.1507C26.9078 77.2186 25.8099 75.3899 26.398 74.152C27.3 72.253 31.8514 72.4138 35.0054 73.6098C37.5923 74.5907 40.8248 76.8692 40.4273 78.4218C39.967 80.2196 34.8177 80.3477 31.7522 79.8451Z" fill="#FFD75D"/>
<path id="Vector_12" d="M1.9311 72.4132C1.81684 70.448 1.70781 66.1265 2.92513 60.8466C2.92513 60.8466 3.9686 56.3198 6.47201 52.1941C6.61672 51.9554 7.40121 50.6883 8.82153 49.6186C9.89708 48.8083 10.6992 48.5922 11.3066 48.5342C11.6232 48.5041 11.8897 48.5169 12.0747 48.5342C13.1578 48.602 14.7071 48.6259 16.5478 48.3987C18.4416 48.1649 20.4562 47.9164 22.6476 46.7269C23.6452 46.1854 25.2505 45.1386 26.7592 43.2026C24.7099 51.2122 24.2604 58.0977 24.2741 63.0377C24.2863 67.4234 24.3832 76.0602 27.9792 86.3518C28.8795 88.9289 29.7914 91.0139 30.4642 92.4516C29.5003 92.0449 28.5364 91.6383 27.5725 91.2316C25.5229 91.1812 23.8934 91.3678 22.7831 91.5479C21.2469 91.797 20.5325 92.0616 18.0841 92.4967C16.3236 92.8094 15.4431 92.9659 14.989 92.9712C11.3118 93.0131 8.43649 89.8601 7.42085 88.7465C5.41806 86.5506 4.59756 84.3821 3.76102 82.1046C2.28668 78.0902 2.06796 74.7624 1.9311 72.4129V72.4132Z" fill="#F6B91E"/>
<path id="Vector_13" d="M27.9788 86.3516C24.3828 76.06 24.2859 67.4235 24.2738 63.0375C24.2643 59.6497 24.4732 55.3468 25.2658 50.394C22.5935 51.0021 19.5678 51.5312 16.2312 51.8546C12.682 52.1987 9.41605 52.2492 6.50632 52.1372C6.49225 52.1598 6.48079 52.1785 6.47195 52.1935C3.96854 56.3189 2.92507 60.8461 2.92507 60.8461C1.70808 66.1259 1.81678 70.4478 1.93105 72.4126C2.0679 74.7618 2.28662 78.09 3.76096 82.1044C4.59718 84.3819 5.418 86.5503 7.42079 88.7463C8.4361 89.8598 11.3118 93.0128 14.989 92.9709C15.4431 92.9657 16.3232 92.8092 18.084 92.4965C20.5324 92.0614 21.2468 91.7968 22.783 91.5477C23.8933 91.3676 25.5228 91.181 27.5725 91.2314C28.5364 91.638 29.5003 92.0447 30.4642 92.4513C29.7913 91.014 28.8795 88.9287 27.9791 86.3516H27.9788Z" fill="#FCCD2C"/>
<g id="Group_2">
<path id="Vector_14" d="M27.9794 86.3515C27.4032 84.7024 26.9173 83.0961 26.5067 81.5425C23.0551 81.8283 19.395 82.2428 15.5544 82.8273C11.7643 83.4042 8.19152 84.0865 4.85059 84.8284C5.45728 86.1436 6.23031 87.4402 7.42144 88.7462C8.43675 89.8598 11.3124 93.0128 14.9896 92.9709C15.4437 92.9656 16.3238 92.8091 18.0846 92.4964C20.533 92.0613 21.2475 91.7968 22.7837 91.5476C23.894 91.3675 25.5235 91.1809 27.5731 91.2313C28.537 91.638 29.5009 92.0446 30.4648 92.4513C29.792 91.0139 28.8801 88.9286 27.9797 86.3515H27.9794Z" fill="#E98F04"/>
<path id="Vector_15" d="M4.52832 83.7457C5.03778 85.0003 5.68802 86.2733 6.66535 87.5771C6.77241 87.7195 6.88406 87.8606 6.99669 88.004C7.24356 88.319 7.57818 88.7391 8.0012 89.1958C9.64645 90.2946 12.1364 91.8024 15.0599 91.7025C15.5478 91.6842 16.4079 91.5342 18.0374 91.2484C20.3195 90.8483 21.0824 90.5994 22.5623 90.3653C23.6745 90.1912 25.2385 90.0131 27.168 90.0442C28.1031 90.3912 29.0369 90.7389 29.9697 91.0873C29.3237 89.6126 28.4803 87.5797 27.6565 85.1264C27.1215 83.5149 26.6726 81.9482 26.2945 80.4365C22.9388 80.8406 19.3137 81.3539 15.4525 81.9544C11.5212 82.5686 7.85779 83.1472 4.52865 83.7457H4.52832Z" fill="#EB9709"/>
<path id="Vector_16" d="M4.20638 82.6635C4.67819 83.9875 5.29732 85.3637 6.2501 86.7958C6.35422 86.9516 6.46357 87.1058 6.57162 87.263C6.82242 87.6284 7.14427 88.0858 7.55059 88.5723C9.43813 89.4082 12.083 90.6108 15.1302 90.435C15.6521 90.4048 16.4919 90.2601 17.9902 90.0008C20.1059 89.6357 20.9176 89.4023 22.3408 89.1836C23.455 89.0156 24.9539 88.846 26.7629 88.8578C27.6688 89.1453 28.5728 89.4341 29.4742 89.7242C28.8551 88.2125 28.0726 86.2339 27.3326 83.9021C26.8339 82.3302 26.4266 80.8015 26.0815 79.3311C22.8218 79.8533 19.2314 80.4659 15.3502 81.0824C11.2779 81.7339 7.52341 82.2087 4.20605 82.6638L4.20638 82.6635Z" fill="#EE9F0E"/>
<path id="Vector_17" d="M3.88444 81.5808C4.31892 82.9742 4.9063 84.4535 5.83517 86.0136C5.93635 86.1832 6.04276 86.3505 6.14655 86.5211C6.40029 86.9379 6.71035 87.432 7.1003 87.9483C9.23013 88.5213 12.0298 89.4122 15.2005 89.1669C15.7561 89.124 16.5757 88.9855 17.9433 88.7531C19.893 88.423 20.7528 88.205 22.1197 88.0017C23.2359 87.8396 24.6693 87.6788 26.3581 87.671C27.2353 87.8985 28.1088 88.1287 28.9794 88.3605C28.3871 86.8118 27.6707 84.886 27.0093 82.6773C26.5503 81.1433 26.1816 79.6539 25.869 78.2251C22.7052 78.8655 19.1498 79.5773 15.248 80.2099C11.0345 80.8988 7.18936 81.2694 3.88379 81.5814L3.88444 81.5808Z" fill="#F0A613"/>
<path id="Vector_18" d="M3.56283 80.4982C3.95965 81.9611 4.51593 83.5432 5.42057 85.2316C5.51912 85.4147 5.62193 85.5957 5.72212 85.7794C5.97783 86.2479 6.27709 86.778 6.65034 87.3241C9.02245 87.6342 11.977 88.2124 15.2711 87.8987C15.8608 87.8428 16.66 87.7105 17.8963 87.5049C19.6798 87.2099 20.588 87.0075 21.8986 86.8193C23.0164 86.6631 24.3847 86.5108 25.9537 86.4837C26.8017 86.6516 27.6454 86.8225 28.4849 86.9964C27.9191 85.4104 27.2702 83.5369 26.6867 81.452C26.268 79.956 25.9373 78.5062 25.6574 77.1187C22.5895 77.8773 19.0688 78.6879 15.1471 79.3366C10.7924 80.0628 6.85661 80.3296 3.5625 80.4979L3.56283 80.4982Z" fill="#F3AE18"/>
<path id="Vector_19" d="M3.24056 79.4157C3.60006 80.948 4.12458 82.6332 5.00532 84.4496C5.10093 84.6464 5.20046 84.8409 5.29705 85.0377C5.55374 85.5586 5.84317 86.124 6.19973 86.7003C8.8138 86.7471 11.9232 87.0117 15.3414 86.6309C15.9648 86.5615 16.7441 86.4361 17.8491 86.2573C19.4662 85.9973 20.4232 85.8104 21.6776 85.6375C22.7973 85.4876 24.1004 85.3438 25.5489 85.2973C26.3681 85.4057 27.1817 85.5177 27.9898 85.6332C27.4508 84.0103 26.8707 82.1885 26.3632 80.2277C25.9857 78.769 25.692 77.3592 25.4448 76.0132C22.4732 76.89 18.9872 77.7999 15.0448 78.4645C10.5491 79.2281 6.52223 79.3911 3.24023 79.416L3.24056 79.4157Z" fill="#F5B61D"/>
<path id="Vector_20" d="M2.91895 78.3334C3.24079 79.9351 3.73421 81.7232 4.59072 83.6683C4.68338 83.8785 4.77898 84.0871 4.87262 84.2963C5.12932 84.8699 5.40958 85.4704 5.75009 86.0764C8.60645 85.8604 11.8698 85.8037 15.4124 85.3633C16.0695 85.2792 16.8288 85.162 17.8028 85.0101C19.2539 84.7851 20.2591 84.6136 21.4571 84.4561C22.5788 84.312 23.8165 84.1771 25.1448 84.111C25.9348 84.1598 26.7186 84.2128 27.4956 84.2701C26.9835 82.6098 26.4737 80.8398 26.0409 79.003C25.706 77.5817 25.448 76.2118 25.2332 74.9077C22.3575 75.9027 18.9066 76.9118 14.9439 77.5922C10.307 78.393 6.18948 78.4523 2.91895 78.3338V78.3334Z" fill="#F7BE22"/>
<path id="Vector_21" d="M2.59766 77.2506C2.88218 78.9217 3.34383 80.8128 4.17645 82.886C4.26648 83.1096 4.35783 83.332 4.44853 83.5543C4.70456 84.1806 4.97664 84.8165 5.30046 85.4523C8.3991 84.9733 11.817 84.6036 15.4837 84.0952C16.1748 83.9979 16.9135 83.8872 17.7566 83.7618C19.0414 83.5719 20.095 83.4161 21.2367 83.2737C22.3603 83.1355 23.5325 83.0091 24.7406 82.9237C25.5019 82.9129 26.2556 82.907 27.0014 82.906C26.5162 81.2087 26.0785 79.4898 25.7183 77.7777C25.4272 76.3934 25.2033 75.0641 25.0216 73.8013C22.2418 74.9145 18.8256 76.0224 14.8429 76.7192C10.065 77.5574 5.85673 77.5128 2.59798 77.2509L2.59766 77.2506Z" fill="#FAC527"/>
<path id="Vector_22" d="M26.5063 81.5424C25.6586 78.3353 25.1341 75.3552 24.809 72.6953C22.1252 73.9267 18.744 75.1339 14.7407 75.8463C9.82195 76.7218 5.52268 76.5735 2.27539 76.1679C2.52226 77.9084 2.95281 79.9027 3.76119 82.1039C4.10007 83.0269 4.43665 83.9318 4.84984 84.828C8.19077 84.0857 11.7632 83.4034 15.5537 82.8268C19.3942 82.2424 23.0544 81.8279 26.506 81.542L26.5063 81.5424Z" fill="#FCCD2C"/>
</g>
<path id="Vector_23" d="M21.1558 54.9051C21.4433 53.3027 21.9279 50.6932 23.2795 47.5402C24.8278 43.9285 26.6381 41.6481 29.0629 38.6391C32.8596 33.9283 36.4647 29.4549 40.3583 26.7563C40.8462 26.4184 42.0992 25.5806 42.979 24.0001C44.0008 22.164 43.951 20.3452 43.9278 19.3463C43.8525 16.0889 43.8407 12.0063 43.7942 7.05223C43.7926 6.88885 43.8139 6.7258 43.8561 6.56766C44.065 5.78809 44.7634 3.7925 46.7743 2.67406C48.9333 1.4731 51.107 2.11582 51.9252 2.35778C54.6643 3.1678 56.156 5.26947 57.3924 7.01163C59.0036 9.28192 59.8175 11.5738 60.2389 13.3373C61.449 18.4017 60.272 22.6643 59.1545 26.7111C58.6261 28.6252 57.7512 31.274 56.2628 34.3019C56.1786 34.4764 55.0006 37.0263 56.4435 39.3624C57.6107 41.2519 59.992 42.1903 62.3173 41.6216C67.7498 41.3007 72.252 41.5895 75.533 41.9604C80.6247 42.536 82.6982 43.3005 84.276 44.0952C86.359 45.1445 88.8634 46.2515 90.4094 48.9749C91.5701 51.0193 91.6644 52.972 91.6958 53.821C91.8288 57.4127 90.1763 59.7894 89.969 60.0559C89.5755 60.5618 89.2959 60.8037 89.2959 60.8037C88.9809 61.0761 88.8758 61.0797 88.8519 61.1927C88.7668 61.5977 90.0319 61.9733 91.0011 62.8183C91.8513 63.5596 92.203 64.4259 92.5013 65.1613C93.344 67.2381 93.3741 70.3462 91.7312 72.4361C90.1308 74.4716 87.5707 74.7424 87.7037 75.8664C87.7731 76.4548 88.5307 76.8549 88.9901 78.4759C88.9901 78.4759 89.0346 78.6324 89.0749 78.8059C89.3227 79.8736 89.6138 83.7345 87.3239 85.8627C85.8417 87.2404 83.096 88.0609 83.2057 88.479C83.2138 88.5108 83.278 88.6892 83.3517 88.9751C83.3517 88.9751 83.3916 89.1299 83.425 89.2858C84.1994 92.906 81.9458 95.6504 81.9458 95.6504C81.9458 95.6504 80.7651 97.0396 77.8279 98.3113C77.8279 98.3113 77.8105 98.3188 77.787 98.3289C77.787 98.3289 77.7284 98.3542 77.6714 98.3781C77.654 98.3853 76.7625 98.7588 75.8621 99.0339C74.6376 99.4078 73.3446 99.616 73.1115 99.653C72.1784 99.8003 70.5642 100.004 68.1086 100.001C65.6507 99.9978 64.4219 99.9961 62.9509 99.6805C61.689 99.4097 59.7019 98.8093 57.4772 97.3091C56.2327 97.4439 54.4158 97.6057 52.2186 97.6705C48.2339 97.7884 42.9544 97.9446 36.9356 96.2813C34.2665 95.5436 30.3421 94.1417 25.9901 91.3C24.8943 88.7701 23.5669 85.2298 22.5677 80.8631C21.6103 76.6794 21.385 73.62 21.0429 68.9688C20.5753 62.6179 20.3579 59.3517 21.1558 54.9057V54.9051Z" fill="#F6BA1E"/>
<path id="Vector_24" d="M21.1102 55.1678C22.4706 52.8795 24.3198 49.9835 26.7135 46.7719C28.9294 43.7987 30.9532 41.0834 34.0784 38.0064C38.6458 33.5097 40.792 32.8657 43.4313 28.8794C45.1852 26.23 46.0519 23.3219 46.0519 23.3219C46.2994 22.5014 46.8023 20.6489 46.9555 15.8667C47.0272 13.6331 47.0269 10.6202 46.7391 7.02686C46.7244 6.84318 46.7286 6.65754 46.7509 6.47484C47.0472 4.014 48.0638 2.20307 49.4881 1.83408C49.6999 1.77907 50.4716 1.60227 51.9257 2.35729C54.952 3.92854 56.2515 7.09594 56.8958 8.7281C58.0768 11.7197 58.2009 14.2365 58.2965 16.59C58.377 18.5669 58.4808 21.123 57.7176 24.1493C56.3022 29.7621 53.6259 30.1616 53.2409 34.5607C53.2006 35.0211 52.8264 40.0374 55.8114 42.2084C57.0517 43.1105 58.3246 43.1236 61.6852 42.9766C70.5624 42.5886 72.4355 42.0284 76.5049 42.344C81.0098 42.6933 83.508 43.7512 84.2764 44.0947C86.2449 44.9754 88.818 46.1701 90.4099 48.9744C91.5706 51.0188 91.6648 52.9715 91.6963 53.8205C91.8292 57.4122 90.1768 59.7889 89.9695 60.0554C89.5759 60.5613 89.2963 60.8032 89.2963 60.8032C88.9814 61.0757 88.8763 61.0793 88.8524 61.1922C88.7672 61.5972 90.0324 61.9728 91.0015 62.8178C91.8518 63.5591 92.2034 64.4254 92.5017 65.1608C93.3445 67.2376 93.3746 70.3457 91.7316 72.4356C90.1312 74.4711 87.5712 74.7419 87.7041 75.8659C87.7735 76.4543 88.5312 76.8544 88.9905 78.4754C88.9905 78.4754 89.0351 78.6319 89.0753 78.8054C89.3232 79.8731 89.6143 83.734 87.3243 85.8622C85.8421 87.2399 83.0964 88.0604 83.2061 88.4785C83.2143 88.5103 83.2785 88.6887 83.3522 88.9746C83.3522 88.9746 83.3921 89.1294 83.4255 89.2853C84.1998 92.9055 81.9462 95.6499 81.9462 95.6499C81.9462 95.6499 80.7656 97.0391 77.8284 98.3108C77.8284 98.3108 77.811 98.3183 77.7874 98.3285C77.7874 98.3285 77.7288 98.3537 77.6719 98.3776C77.6545 98.3848 76.763 98.7583 75.8626 99.0334C74.638 99.4073 73.3451 99.6155 73.112 99.6525C72.1788 99.7999 70.5647 100.004 68.1091 100.001C65.6512 99.9973 64.4224 99.9956 62.9513 99.68C61.6895 99.4092 59.7024 98.8088 57.4776 97.3086C56.2331 97.4435 54.4163 97.6052 52.219 97.67C48.2344 97.7879 42.9549 97.9441 36.936 96.2808C34.2669 95.5432 30.3426 94.1412 25.9906 91.2995C24.8947 88.7696 23.5674 85.2293 22.5681 80.8626C22.5439 80.7571 22.5138 80.6242 22.4787 80.4651C21.7489 77.1566 21.4487 74.5094 21.0434 68.9683C20.5572 62.3231 20.602 60.8985 20.6321 60.1893C20.7212 58.1027 20.9311 56.374 21.1105 55.1685L21.1102 55.1678Z" fill="#FCCE2C"/>
<g id="Group_3">
<path id="Vector_25" d="M53.9809 86.0804C46.3924 86.4537 40.1575 86.3744 32.9033 83.9116C28.4678 82.4059 24.8568 80.4178 22.0986 78.5879C22.2132 79.206 22.3396 79.8317 22.4784 80.4643C23.3585 84.4709 24.5958 88.0855 25.9903 91.2987C30.3423 94.1404 34.2666 95.5424 36.9357 96.28C42.9542 97.9433 48.2341 97.7871 52.2187 97.6692C54.416 97.6044 56.2328 97.4427 57.4773 97.3078C59.7024 98.808 61.6895 99.4085 62.951 99.6792C64.4218 99.9949 65.6509 99.9965 68.1088 99.9998C70.5644 100.003 72.1785 99.7991 73.1117 99.6517C73.3448 99.6147 74.6377 99.4068 75.8623 99.0326C76.7623 98.7576 77.6542 98.3843 77.6715 98.3768C77.7285 98.3529 77.7871 98.3277 77.7871 98.3277C77.8107 98.3175 77.8277 98.31 77.8281 98.31C80.7653 97.0383 81.9459 95.6491 81.9459 95.6491C81.9459 95.6491 82.5831 94.8731 83.0634 93.6021L81.8562 83.0237C70.6289 84.9102 61.1977 85.7245 53.9812 86.0798L53.9809 86.0804Z" fill="#EE9605"/>
<path id="Vector_26" d="M21.9053 76.6611C21.9963 77.2672 22.0981 77.8817 22.2117 78.5038C22.4697 79.8999 22.771 81.2633 23.1095 82.5932C23.7149 84.9565 24.4359 87.1583 25.2207 89.1932C29.6142 92.0993 33.5763 93.5521 36.2761 94.3241C42.5284 96.1197 47.9926 96.0011 52.5247 95.8433C54.6024 95.7772 56.3783 95.6269 57.6926 95.4953C59.829 96.7254 61.7846 97.1893 63.147 97.3982C64.622 97.6245 65.9002 97.613 68.214 97.5858C70.501 97.5613 72.0939 97.3589 73.1269 97.2044C73.4582 97.1549 74.6749 96.9631 75.8362 96.6314C76.6803 96.3888 77.5204 96.0742 77.6281 96.0434C77.6835 96.0277 77.7368 96.0005 77.7431 95.9995C77.7647 95.9907 77.7814 95.9844 77.7837 95.9838C80.569 95.1774 81.6953 93.6922 81.9431 93.6503C81.9431 93.6503 82.4365 92.6762 82.837 91.6171L81.6609 81.3107C74.3828 82.5739 67.6446 83.3708 61.5757 83.784C58.7878 83.9831 56.1986 84.1062 53.8212 84.174C46.1758 84.393 39.8128 84.0882 32.7915 81.7567C28.3527 80.2895 24.7112 78.3974 21.9053 76.6602V76.6611Z" fill="#F09F0C"/>
<path id="Vector_27" d="M21.7109 74.7246C21.7787 75.3185 21.8547 75.922 21.9441 76.5339C22.1421 77.8907 22.3861 79.2318 22.665 80.5572C23.1633 82.8939 23.7753 85.0706 24.4501 87.0786C28.8849 90.0492 32.8852 91.5527 35.6159 92.3591C42.1023 94.2866 47.7505 94.1949 52.8303 94.0083C54.7882 93.9363 56.5235 93.8023 57.9072 93.6733C59.9552 94.6337 61.8774 94.9657 63.3422 95.1081C64.8192 95.2518 66.1492 95.2207 68.3186 95.1628C70.437 95.1104 72.0089 94.9113 73.1414 94.7482C73.571 94.6864 74.711 94.5105 75.8098 94.2211C76.5976 94.0109 77.3853 93.7523 77.5844 93.7009C77.6361 93.6874 77.6862 93.6645 77.6984 93.6625C77.7183 93.655 77.734 93.6501 77.7386 93.6488C80.2512 92.9779 81.4436 91.7265 81.9397 91.6431C81.9397 91.6431 82.2897 90.4709 82.6099 89.6236L81.4649 79.5893C74.4701 80.8453 67.7394 81.655 61.4059 81.9958C58.6442 82.1589 56.0586 82.2401 53.6606 82.2597C45.9579 82.3245 39.4676 81.7941 32.6783 79.5939C28.2366 78.1657 24.5643 76.3692 21.7109 74.7246Z" fill="#F3A912"/>
<path id="Vector_28" d="M21.5169 72.7754C21.5611 73.3569 21.6125 73.9492 21.6767 74.551C21.8168 75.8678 22.0015 77.1873 22.2212 78.5078C22.6125 80.818 23.115 82.9694 23.6798 84.9506C28.1562 87.9857 32.1942 89.54 34.9556 90.3811C41.6758 92.4408 47.5083 92.3845 53.1359 92.1602C54.974 92.0869 56.6687 91.9645 58.1221 91.8387C60.0817 92.5292 61.9695 92.7342 63.5375 92.8049C65.0155 92.8717 66.3982 92.8151 68.4232 92.7263C70.373 92.6461 71.9239 92.451 73.1563 92.2784C73.6841 92.2048 74.7478 92.0443 75.7838 91.7971C76.5156 91.6197 77.25 91.4131 77.541 91.3447C77.5892 91.3335 77.636 91.3145 77.6543 91.3116C77.6723 91.3057 77.6877 91.3014 77.6939 91.2998C79.9305 90.7488 81.1927 89.7469 81.9366 89.6218C81.9366 89.6218 82.1431 88.2516 82.3831 87.6161L81.2693 77.8542C74.5573 79.103 67.8348 79.9255 61.2365 80.1939C58.5013 80.321 55.9189 80.3599 53.5003 80.3314C45.7406 80.2417 39.1226 79.4861 32.5655 77.4175C28.1205 76.0279 24.4175 74.3273 21.5166 72.7754H21.5169Z" fill="#F5B218"/>
<path id="Vector_29" d="M21.3232 70.8014C21.3439 71.3708 21.371 71.9516 21.4097 72.5433C21.4928 73.8205 21.6173 75.1181 21.7774 76.4336C22.0616 78.717 22.4551 80.8435 22.9099 82.7979C27.4275 85.8975 31.5035 87.5025 34.2957 88.378C41.2496 90.57 47.2669 90.552 53.4419 90.2868C55.1605 90.2131 56.8142 90.1015 58.337 89.9787C60.2082 90.3994 62.062 90.4417 63.7331 90.4764C65.2117 90.5072 66.6475 90.384 68.5281 90.2649C70.3092 90.1568 71.8396 89.9676 73.1712 89.7836C73.7972 89.6988 74.7847 89.5531 75.7574 89.3481C76.4329 89.2031 77.1129 89.0443 77.4976 88.9634C77.5418 88.9542 77.5854 88.9395 77.6102 88.9359C77.6266 88.9313 77.641 88.928 77.6495 88.9261C79.6114 88.4896 80.942 87.7425 81.9337 87.5758C81.9337 87.5758 81.9966 86.0075 82.1567 85.5838L81.074 76.0941C74.6452 77.3353 67.9303 78.1705 61.0673 78.367C58.3583 78.458 55.7796 78.4551 53.3404 78.3784C45.5234 78.1345 38.7777 77.1533 32.4533 75.2159C28.0054 73.8654 24.2716 72.2604 21.3232 70.8008V70.8014Z" fill="#F7BB1F"/>
<path id="Vector_30" d="M21.1298 68.6138C21.1269 69.171 21.1308 69.7407 21.1426 70.3222C21.1714 71.5595 21.233 72.8354 21.3335 74.1464C21.5106 76.4033 21.7948 78.5046 22.1399 80.4321C26.6992 83.5962 30.8131 85.2516 33.6361 86.1618C40.8238 88.4858 47.026 88.5182 53.7478 88.2006C55.3469 88.1293 56.9597 88.0255 58.5522 87.9056C60.3347 88.0566 62.1545 88.0235 63.929 87.9351C65.4093 87.8614 66.897 87.7403 68.6336 87.5907C70.2462 87.4548 71.7552 87.2691 73.1867 87.0763C73.9109 86.9797 74.8221 86.8494 75.732 86.6867C76.3514 86.574 76.9761 86.4572 77.4548 86.3697C77.4954 86.3622 77.5357 86.3524 77.5668 86.3478C77.5815 86.3445 77.595 86.3422 77.6058 86.3399C79.2955 86.0158 80.692 85.5257 81.9316 85.3174C81.9316 85.3174 81.851 83.551 81.9309 83.3392L80.8792 74.1215C74.7334 75.3555 68.0266 76.2035 60.8988 76.3276C58.216 76.3823 55.6409 76.3378 53.181 76.213C45.3067 75.8149 38.4337 74.6081 32.3415 72.802C27.8903 71.4901 24.126 69.9807 21.1302 68.6141L21.1298 68.6138Z" fill="#FAC525"/>
<path id="Vector_31" d="M53.9812 86.0803C61.1977 85.7254 70.6289 84.9108 81.8562 83.0242L80.6114 72.1141C74.7484 73.341 68.0495 74.2014 60.6572 74.2538C43.0518 74.3779 29.1632 69.8671 20.8639 66.3926C20.7821 68.0797 20.7572 69.8959 20.8178 71.825C20.8878 74.0554 21.063 76.1315 21.2978 78.0318C25.8983 81.2604 30.0502 82.9666 32.9039 83.9112C40.3254 86.3674 46.7123 86.4375 53.9815 86.08L53.9812 86.0803Z" fill="#FCCE2C"/>
</g>
<g id="Group_4">
<path id="Vector_32" d="M81.3901 85.6267C81.3901 85.6267 78.1474 82.7281 71.0108 85.0393C69.8884 85.4027 68.7372 85.6696 67.6368 86.1057C67.5284 86.1486 67.4177 86.1823 67.3051 86.2065C67.2157 86.2183 67.0723 86.2363 66.8962 86.2537C61.6546 86.7684 59.7219 83.5231 56.7143 84.4866C54.9606 85.0485 53.6529 86.7815 53.1255 88.356C52.7067 89.6061 52.7981 90.7098 52.8537 91.1669C53.1644 93.7184 55.0078 95.2867 56.4235 96.4913C58.7429 98.4649 61.1936 99.3034 62.9518 99.6796C64.4763 99.877 66.207 100.009 68.1096 100C69.949 99.9913 71.6273 99.8525 73.1124 99.6521C74.5429 99.4403 76.0805 99.048 77.6723 98.3775C77.7552 98.3428 77.8125 98.3176 77.8288 98.3107C79.7668 97.4738 80.9308 96.9532 81.9467 95.6498C83.221 94.0144 83.9207 91.5679 83.426 89.2852C83.3202 88.7977 82.9005 86.9763 81.3911 85.6267H81.3901Z" fill="#F5B41A"/>
<path id="Vector_33" d="M64.588 96.3481C64.607 96.1968 64.7425 95.2326 65.5368 94.5182C66.4444 93.7016 67.63 93.7353 68.79 93.7389C71.2721 93.7464 73.4491 93.6155 74.3475 93.5356C76.0507 93.384 78.93 93.0939 81.5654 91.1975C82.5211 90.51 83.1979 89.7887 83.6323 89.2661C83.7234 91.6464 83.081 93.237 82.5479 94.1796C80.0174 98.6563 73.1099 100.642 65.4013 98.822C65.2661 98.6734 64.4174 97.7081 64.588 96.3484V96.3481Z" fill="#FCCE2C"/>
<path id="Vector_34" d="M80.5146 89.7064C80.5323 90.2391 80.5202 90.9909 80.379 91.8752C80.213 92.9144 79.918 94.6327 78.651 96.2465C78.2335 96.7782 77.4775 97.5951 76.2451 98.2797C77.3469 97.972 79.5723 97.1738 81.3282 95.0943C81.9961 94.3033 83.1427 92.9455 83.2259 90.9601C83.2603 90.137 83.1018 89.4543 82.9548 88.9946C82.1415 89.2317 81.3282 89.4691 80.5149 89.7061L80.5146 89.7064Z" fill="#FFD75D"/>
<g id="Group_5" opacity="0.03">
<path id="Vector_35" d="M53.304 90.7227C55.5311 92.2196 60.3975 95.0524 67.2316 95.6361C74.8695 96.2887 80.6617 93.764 83.0568 92.5526C82.8122 93.3118 82.3476 94.4345 81.4302 95.5347C80.9928 96.0592 79.688 97.4949 76.3471 98.6182C75.245 98.9889 71.8442 100.024 67.062 99.533C64.0373 99.2226 60.6093 98.871 57.438 96.3139C55.0773 94.4103 53.8845 92.1115 53.3037 90.7227H53.304Z" fill="black"/>
</g>
<g id="Group_6" opacity="0.5">
<path id="Vector_36" d="M53.304 90.7227C54.2984 91.9161 55.9685 93.634 58.4549 95.0602C61.8148 96.9877 64.8594 97.3462 66.9267 97.5679C69.3951 97.8328 73.2884 98.2502 77.6011 96.3479C80.1985 95.2023 81.994 93.636 83.0568 92.5526C82.8122 93.3118 82.3476 94.4345 81.4302 95.5347C80.9928 96.0592 79.688 97.4949 76.3471 98.6182C75.245 98.9889 71.8442 100.024 67.062 99.533C64.0373 99.2226 60.6093 98.871 57.438 96.3139C55.0773 94.4103 53.8845 92.1115 53.3037 90.7227H53.304Z" fill="#EE9605"/>
</g>
</g>
<g id="Group_7">
<path id="Vector_37" d="M86.6253 74.74C86.6253 74.74 82.7324 71.5134 74.1928 74.0547C72.8497 74.4545 71.472 74.7466 70.1554 75.2269C70.0258 75.274 69.8932 75.3113 69.7586 75.3379C69.6516 75.3506 69.48 75.3703 69.2691 75.3889C62.9933 75.9433 60.6683 72.3361 57.0694 73.3953C54.971 74.0132 53.4102 75.9315 52.7839 77.6769C52.2865 79.0625 52.3995 80.2874 52.4676 80.7945C52.848 83.6264 55.0604 85.3724 56.76 86.7135C59.5443 88.9108 62.4822 89.8488 64.5884 90.2722C66.4147 90.4961 68.4879 90.6484 70.7664 90.6448C72.9696 90.6412 74.9789 90.4922 76.7568 90.2748C78.4695 90.0443 80.3095 89.6144 82.2134 88.8754C82.3123 88.8371 82.3811 88.8096 82.4007 88.8018C84.7188 87.8794 86.1113 87.3058 87.3237 85.8626C88.8449 84.052 89.6749 81.3403 89.0747 78.8058C88.9467 78.2646 88.4379 76.2422 86.6257 74.7403L86.6253 74.74Z" fill="#F5B41A"/>
<path id="Vector_38" d="M65.7509 89.108C65.5676 88.8756 64.0762 86.9252 64.7569 84.9512C65.412 83.0512 67.6316 82.4272 68.7782 82.1047C70.2594 81.6882 71.4132 81.7841 72.3928 81.8336C75.4712 81.9891 79.9083 82.2134 83.0557 80.6136C84.1791 80.0426 85.7615 78.9225 87.1674 76.502C87.5164 76.8097 87.9751 77.2956 88.297 77.993C89.5352 80.6778 87.539 83.8897 86.8511 84.9964C84.2446 89.1902 75.8303 90.7304 65.7509 89.108Z" fill="#FCCE2C"/>
<path id="Vector_39" d="M84.7725 77.3602C85.1886 78.1876 85.7004 79.4521 85.902 81.0653C86.18 83.2874 85.7344 85.0846 85.405 86.0806C85.6594 85.9548 88.466 84.5051 88.9293 81.2912C89.3157 78.6116 87.7879 76.6828 87.5286 76.3662C86.6099 76.6976 85.6912 77.0289 84.7725 77.3602Z" fill="#FFD75D"/>
<g id="Group_8" opacity="0.03">
<path id="Vector_40" d="M53.1006 80.8394C55.8459 82.6061 61.3275 85.6039 68.8692 86.3065C78.6114 87.2141 85.9916 83.7511 88.8849 82.1949C88.737 82.7001 88.4708 83.4538 87.9813 84.2733C84.1643 90.6644 73.2676 90.1923 70.1343 90.0567C66.2731 89.8894 57.4591 89.5076 54.147 83.6754C53.5279 82.5851 53.244 81.5564 53.1006 80.8397V80.8394Z" fill="black"/>
</g>
<g id="Group_9" opacity="0.5">
<path id="Vector_41" d="M53.1006 80.8394C54.0809 82.0485 55.6479 83.7032 57.9352 85.1318C61.7145 87.4921 65.2493 87.8545 68.5981 88.159C72.5224 88.5156 79.2786 89.1298 85.4173 85.1003C87.0125 84.0533 88.163 82.9571 88.8849 82.1949C88.737 82.7001 88.4708 83.4538 87.9813 84.2733C84.1643 90.6644 73.2676 90.1923 70.1343 90.0567C66.2731 89.8894 57.4591 89.5076 54.147 83.6754C53.5279 82.5851 53.244 81.5564 53.1006 80.8397V80.8394Z" fill="#EE9605"/>
</g>
</g>
<g id="Group_10">
<path id="Vector_42" d="M82.0161 59.5134C79.9897 59.5186 77.9067 60.0739 76.3364 60.4924C74.5943 60.9566 73.1419 61.4978 72.0476 61.9582C71.8361 62.0472 71.6161 62.1095 71.3912 62.1445C71.3912 62.1445 71.2481 62.1667 71.1024 62.174C68.4346 62.3075 64.1246 61.9081 64.1246 61.9081C61.739 61.6871 59.4131 61.4713 57.1837 62.6248C56.7083 62.8707 53.6516 64.5166 53.1002 67.8723C52.5449 71.2502 54.9485 73.8021 55.5378 74.4274C56.8396 75.8094 58.3156 76.3981 61.2672 77.5752C63.1158 78.3125 64.5839 78.6488 65.7403 78.8288C66.1879 78.8986 66.6872 78.9605 67.3385 79.0105C71.3208 79.318 75.4694 78.8518 75.4694 78.8518C80.4023 78.2974 82.8687 78.0201 85.8128 76.7275C88.3221 75.6257 90.3678 74.7276 91.7318 72.4351C91.9099 72.1355 93.878 68.7081 92.5018 65.1603C90.7502 60.6439 84.9615 59.5052 82.0164 59.5127L82.0161 59.5134Z" fill="#F5B41A"/>
<path id="Vector_43" d="M68.7781 77.5862C68.4536 77.1524 67.087 75.2337 67.6485 73.1582C68.192 71.1496 70.2066 70.2312 71.715 69.5436C74.0651 68.4723 74.8702 68.914 79.0798 68.1429C84.7526 67.1037 86.3661 65.7377 86.8513 65.2964C88.0503 64.2061 88.7257 62.9737 89.1104 62.0884C89.5233 62.2174 90.1189 62.4613 90.6919 62.9469C90.6919 62.9469 91.013 63.2199 91.2855 63.5634C91.9426 64.3911 92.4622 66.0704 92.4088 67.6007C92.3057 70.5569 90.0727 72.8609 89.3364 73.6101C83.422 79.6256 70.236 77.8033 68.7784 77.5862H68.7781Z" fill="#FCCE2C"/>
<path id="Vector_44" d="M86.8516 63.3542C87.2196 64.0129 87.6799 64.9438 88.0715 66.1103C88.412 67.1247 88.8275 68.362 88.8396 69.9509C88.8465 70.8362 88.7326 72.4298 87.8456 74.2885C88.1665 74.1225 92.433 71.8309 92.6802 67.6917C92.7191 67.0399 92.8462 64.9104 91.3247 63.2186C90.4135 62.2056 89.3173 61.8009 88.7493 61.6372C88.1167 62.2095 87.4841 62.7818 86.8516 63.3542Z" fill="#FFD75D"/>
<g id="Group_11" opacity="0.03">
<path id="Vector_45" d="M54.2295 71.5322C62.0733 74.0978 68.7293 74.7304 73.2512 74.8306C82.4103 75.0333 86.2754 73.128 88.1613 71.9841C90.1913 70.7526 91.6444 69.3621 92.5893 68.3242C92.5281 69.2921 92.2943 70.7399 91.4145 72.1648C90.2263 74.089 88.3833 75.1243 85.5407 76.1409C79.2734 78.382 73.668 78.5566 70.9921 78.5356C69.8082 78.5264 64.75 78.4439 60.3292 76.7283C58.5658 76.044 57.2735 75.2431 56.1724 74.1528C55.2042 73.1942 54.5962 72.2218 54.2295 71.5322Z" fill="black"/>
</g>
<g id="Group_12" opacity="0.5">
<path id="Vector_46" d="M54.2295 71.5322C55.3794 72.3688 57.0639 73.4594 59.2448 74.4239C64.9798 76.9601 70.0603 76.815 73.3868 76.6831C78.2197 76.4912 83.9269 76.265 88.9295 72.2551C90.6575 70.8702 91.8352 69.4073 92.5893 68.3242C92.5281 69.2921 92.2943 70.7399 91.4145 72.1648C90.2263 74.089 88.3833 75.1243 85.5407 76.1409C79.2734 78.382 73.668 78.5566 70.9921 78.5356C69.8082 78.5264 64.75 78.4439 60.3292 76.7283C58.5658 76.044 57.2735 75.2431 56.1724 74.1528C55.2042 73.1942 54.5962 72.2218 54.2295 71.5322Z" fill="#EE9605"/>
</g>
</g>
<g id="Group_13">
<path id="Vector_47" d="M81.7002 47.8566C79.8143 47.8616 77.8753 48.3612 76.4137 48.7377C74.7921 49.1555 73.4405 49.6427 72.4219 50.0572C72.1413 50.1711 71.8444 50.2369 71.5422 50.2513C68.5974 50.3941 65.6523 50.5369 62.7076 50.6796C61.9106 50.7182 61.118 50.8404 60.3548 51.0728C57.1104 52.0606 54.8545 54.5991 54.6358 57.3448C54.4446 59.7447 55.8374 61.9525 57.2947 63.1528C58.7157 64.3229 60.2814 64.6183 62.8588 65.0707C64.9759 65.4427 66.776 65.4614 68.0382 65.405C70.5609 65.3576 73.0836 65.3098 75.6063 65.2623C78.8284 65.2014 82.0135 64.5312 84.972 63.2536C85.0345 63.2268 85.0958 63.1999 85.1563 63.1731C87.4391 62.1663 88.8096 61.5419 89.9683 60.0554C90.0833 59.9081 92.7039 56.4418 91.4594 52.9391C90.0067 48.851 84.4026 47.8491 81.7002 47.856V47.8566Z" fill="#F6BA1E"/>
<path id="Vector_48" d="M71.3991 63.9866C70.941 63.7433 68.9533 62.6203 68.1007 60.2816C66.8942 56.9724 68.9307 53.8905 69.2755 53.3686C71.0789 50.6396 73.9146 49.7546 76.9566 48.8051C79.0324 48.1571 80.847 47.591 83.2374 47.944C84.626 48.1489 88.1165 48.665 89.7434 51.6516C91.1179 54.175 90.4726 57.197 89.2464 59.1068C87.8746 61.2439 85.7277 61.9007 81.434 63.2149C76.9975 64.5727 74.1448 65.4456 71.3994 63.9866H71.3991Z" fill="#FCCE2C"/>
<path id="Vector_49" d="M60.7812 42.073C61.2275 42.8294 61.9714 43.8362 63.176 44.5581C65.2243 45.7856 67.2447 45.3744 69.6823 45.2359C70.7831 45.1733 75.84 44.8858 80.2097 46.501C82.1185 47.2066 85.5285 48.4671 87.213 51.8326C89.4191 56.2409 87.03 60.9939 86.6708 61.6825C87.7195 61.0804 90.2455 59.4315 91.0837 56.4714C92.562 51.2498 87.5034 46.4882 87.1227 46.1398C83.0146 42.3818 77.3327 42.2606 66.5663 42.0308C64.1733 41.9797 62.1787 42.0226 60.7812 42.0734V42.073Z" fill="#FFD75D"/>
<g id="Group_14" opacity="0.03">
<path id="Vector_50" d="M55.2687 57.0284C55.8512 57.8096 56.7699 58.8721 58.1153 59.8298C59.2272 60.6211 62.1801 62.4445 72.6645 61.7062C80.2373 61.1728 84.5533 60.8068 88.4328 57.4803C89.8308 56.2813 90.7735 55.0401 91.3697 54.1367C91.3615 55.2077 91.187 57.3935 89.7431 59.4683C89.5509 59.7443 88.972 60.5416 87.8906 61.4112C86.9918 62.1338 85.2886 63.2739 80.2546 64.2577C78.4129 64.6179 75.6715 65.0455 72.1217 65.1614C70.1225 65.2265 68.2088 65.2891 65.7057 64.9807C61.543 64.4679 57.9568 64.0262 56.2172 61.366C55.7382 60.6333 55.0978 59.2712 55.2684 57.0284H55.2687Z" fill="black"/>
</g>
<g id="Group_15" opacity="0.5">
<path id="Vector_51" d="M55.2691 57.0281C55.4459 57.8836 55.8528 59.2002 56.8956 60.3717C58.2443 61.8866 60.0018 62.4236 61.9928 62.8093C67.0854 63.7954 71.4315 63.3518 72.5745 63.227C81.7254 62.2265 86.9021 61.6607 89.7883 57.6158C90.7381 56.2846 91.1637 54.9634 91.3697 54.1367C91.3615 55.2077 91.187 57.3935 89.7431 59.4683C89.5509 59.7443 88.972 60.5416 87.8906 61.4112C86.9918 62.1338 85.2886 63.2739 80.2546 64.2577C78.4129 64.6179 75.6715 65.0455 72.1217 65.1614C70.1225 65.2265 68.2088 65.2891 65.7057 64.9807C61.543 64.4679 57.9568 64.0262 56.2172 61.366C55.7382 60.6333 55.0978 59.2712 55.2684 57.0284L55.2691 57.0281Z" fill="#EE9605"/>
</g>
</g>
<g id="Group_16">
<path id="Vector_52" d="M66.975 66.4125C65.5383 66.4125 64.1016 66.2878 62.6898 66.0396C60.1543 65.5943 58.3227 65.2725 56.6706 63.9121C55.7863 63.1839 55.0051 62.2004 54.4701 61.1425C53.8355 59.8872 53.5543 58.5471 53.6561 57.2666C53.7815 55.6927 54.4648 54.1791 55.6324 52.8894C56.7823 51.619 58.3165 50.6653 60.0692 50.1316C60.8707 49.8876 61.7426 49.7413 62.661 49.6968L71.4956 49.2685C71.6874 49.2593 71.8747 49.2178 72.0525 49.1454C73.387 48.6025 74.772 48.1448 76.1694 47.7847C77.4087 47.4654 78.9511 47.0676 80.5725 46.9252C81.1133 46.8777 81.591 47.2778 81.6385 47.819C81.686 48.3603 81.2859 48.8376 80.7447 48.8851C79.2851 49.0135 77.8297 49.3883 76.6605 49.6899C75.3482 50.0281 74.0474 50.458 72.7941 50.9678C72.41 51.124 72.0054 51.2133 71.5912 51.2333L62.7566 51.6616C61.9999 51.6982 61.2888 51.8168 60.6425 52.0135C57.8264 52.871 55.8072 55.0447 55.6176 57.4227C55.4588 59.4151 56.6605 61.3547 57.9213 62.3932C59.1203 63.3804 60.4254 63.6443 63.0303 64.102C64.6641 64.3888 66.3346 64.4965 67.9952 64.4222C68.0037 64.4219 68.0122 64.4215 68.0207 64.4212L75.5889 64.2785C78.7317 64.2192 81.7577 63.5706 84.5833 62.3503C84.6432 62.3245 84.7025 62.2986 84.7607 62.2731C86.7802 61.3825 87.8767 60.8734 88.7892 59.9199C89.1651 59.5274 89.7875 59.5139 90.1801 59.8895C90.5727 60.265 90.5861 60.8878 90.2105 61.2803C88.9854 62.5599 87.4714 63.2278 85.5547 64.0728C85.4922 64.1003 85.4283 64.1282 85.3638 64.1563C82.3022 65.4784 79.0261 66.1814 75.6262 66.2456L68.0708 66.388C67.7061 66.404 67.3404 66.4122 66.9753 66.4122L66.975 66.4125Z" fill="#E17C00"/>
<path id="Vector_53" d="M70.685 91.6278C68.6147 91.6278 66.5242 91.5002 64.4697 91.248C64.4448 91.2451 64.4202 91.2412 64.3957 91.2363C61.2879 90.6119 58.514 89.35 56.1514 87.4854C54.3686 86.0785 51.9271 84.1517 51.4936 80.9253C51.3296 79.7054 51.456 78.4671 51.859 77.3444C52.3767 75.9028 53.3694 74.5378 54.5831 73.5991C55.013 73.2668 55.6308 73.3457 55.9628 73.7756C56.2952 74.2055 56.2162 74.823 55.7863 75.1553C54.8748 75.8599 54.0989 76.927 53.7105 78.0087C53.4136 78.8361 53.3213 79.7539 53.4434 80.6631C53.7708 83.1004 55.7667 84.6752 57.37 85.9407C59.4783 87.6046 61.9601 88.7345 64.7467 89.2996C66.7367 89.5422 68.7608 89.6637 70.7655 89.6601C72.7192 89.6568 74.6929 89.535 76.6318 89.2983C78.4332 89.0554 80.1918 88.6042 81.8583 87.9575C81.9444 87.9241 82.0066 87.8993 82.0308 87.8898L82.0377 87.8871C84.3719 86.9586 85.5394 86.4577 86.5714 85.2292C87.9999 83.5289 88.607 81.0963 88.1181 79.0319C87.9033 78.125 87.5334 77.3038 87.0183 76.5907C86.7004 76.1503 86.7993 75.5355 87.24 75.2172C87.6804 74.8993 88.2953 74.9982 88.6135 75.4389C89.2804 76.3625 89.7581 77.4187 90.0328 78.5784C90.3557 79.9418 90.3259 81.421 89.9467 82.8564C89.5902 84.2057 88.9439 85.464 88.0778 86.4946C86.6814 88.1569 85.0388 88.8104 82.7656 89.7151L82.7597 89.7174C82.7328 89.7282 82.6647 89.7554 82.5701 89.7917C80.7579 90.495 78.8461 90.9855 76.8891 91.249C76.8852 91.2497 76.8813 91.25 76.8774 91.2507C74.8585 91.4975 72.8034 91.6246 70.7691 91.6278C70.7413 91.6278 70.7131 91.6278 70.6853 91.6278H70.685Z" fill="#E17C00"/>
<path id="Vector_54" d="M67.9297 100.985C66.2285 100.985 64.5122 100.874 62.8254 100.655C62.7985 100.652 62.7723 100.647 62.7458 100.641C60.1193 100.079 57.7776 98.9349 55.786 97.2403C54.2871 95.965 52.2345 94.2186 51.8773 91.2856C51.7427 90.1822 51.8518 89.0611 52.1926 88.0435C52.5842 86.8743 53.2871 85.7651 54.1721 84.9207C54.565 84.5454 55.1878 84.5599 55.563 84.9531C55.9382 85.346 55.9235 85.9687 55.5306 86.3439C54.8826 86.9627 54.3457 87.8101 54.0582 88.6686C53.8097 89.4105 53.7308 90.2329 53.8303 91.0479C54.0945 93.218 55.7395 94.6177 57.0609 95.742C58.7919 97.2147 60.8298 98.213 63.1184 98.7094C64.7666 98.9212 66.4436 99.0247 68.1046 99.0168C69.7259 99.0093 71.3643 98.8953 72.9742 98.6786C74.461 98.4576 75.9131 98.0516 77.2898 97.4714C77.3642 97.44 77.4169 97.4171 77.4349 97.4095C77.4352 97.4095 77.4378 97.4082 77.4382 97.4082C79.363 96.5769 80.3256 96.129 81.17 95.0456C82.3569 93.5225 82.8647 91.3432 82.4636 89.494C82.4325 89.3502 82.3867 89.1538 82.3101 88.9073C82.1487 88.3886 82.4381 87.8373 82.9567 87.6755C83.4757 87.5141 84.0267 87.8035 84.1884 88.3222C84.2893 88.6456 84.3495 88.9076 84.3862 89.0765C84.9137 91.5095 84.2759 94.2598 82.7216 96.2544C81.5305 97.7831 80.141 98.3833 78.2181 99.2139C78.1964 99.2231 78.1375 99.2489 78.0537 99.2843C76.5227 99.9293 74.9086 100.381 73.2561 100.625C73.2518 100.626 73.2476 100.627 73.2433 100.627C71.5477 100.856 69.8219 100.976 68.1137 100.984C68.0522 100.984 67.991 100.984 67.9294 100.984L67.9297 100.985Z" fill="#E17C00"/>
<path id="Vector_55" d="M70.2833 80.1002C69.3148 80.1002 68.2861 80.0704 67.2626 79.9915C66.6529 79.9443 66.1212 79.8838 65.5888 79.8009C64.0464 79.5603 62.5134 79.131 60.9029 78.489C57.9175 77.2985 56.2733 76.6427 54.8218 75.1019C54.5118 74.7728 53.6887 73.8987 53.0214 72.6437C52.1587 71.0207 51.8587 69.3617 52.1298 67.7128C52.619 64.7373 54.7868 62.9532 56.0356 62.155C56.4933 61.8623 57.1016 61.9962 57.3943 62.4539C57.687 62.9116 57.5531 63.52 57.0954 63.8127C56.1227 64.4348 54.4365 65.8099 54.0711 68.0324C53.8537 69.3545 54.056 71.4201 56.254 73.7536C57.4064 74.9772 58.7305 75.5053 61.6317 76.662C63.1034 77.2491 64.4972 77.64 65.892 77.8577C66.3727 77.9327 66.8566 77.9877 67.4142 78.0306C71.2524 78.3269 75.3192 77.8797 75.3598 77.8751C80.1876 77.3326 82.6104 77.0602 85.4173 75.8278C87.8942 74.7404 89.6839 73.9546 90.8861 71.9332C90.9415 71.8402 91.4349 70.9909 91.7466 69.7729C92.1391 68.238 92.0848 66.8062 91.5848 65.5169C91.0642 64.1748 90.0777 63.0626 88.6522 62.2113C88.1856 61.9327 88.0334 61.3289 88.312 60.8624C88.5906 60.3958 89.1944 60.2435 89.661 60.5222C91.4719 61.6036 92.7364 63.0446 93.4193 64.8054C94.9523 68.7583 92.8251 72.5225 92.5776 72.9387C91.0525 75.502 88.808 76.4875 86.209 77.6285C83.1281 78.9811 80.6057 79.2646 75.5805 79.8294C75.4509 79.8438 73.1282 80.1002 70.284 80.1002H70.2833Z" fill="#E17C00"/>
<path id="Vector_56" d="M68.1713 100.984C68.1503 100.984 68.1294 100.984 68.1084 100.984C65.5847 100.981 64.318 100.979 62.7457 100.642C60.8291 100.23 58.9756 99.4511 57.2308 98.3238C55.5842 98.4934 53.9101 98.6041 52.2485 98.6532C48.2763 98.7707 42.836 98.9315 36.6744 97.2286C32.8558 96.1734 29.1681 94.5117 25.7097 92.2889C24.7697 92.3141 23.8329 92.3924 22.9211 92.5217C22.0325 92.6478 21.4104 92.7918 20.6901 92.9585C20.0435 93.1081 19.3104 93.2777 18.2561 93.465C16.3879 93.797 15.5353 93.9483 15.0003 93.9545C14.9725 93.9545 14.9443 93.9548 14.9162 93.9548C13.1612 93.9548 11.3866 93.3294 9.63923 92.0951C8.24641 91.1112 7.23667 90.0039 6.69414 89.409C4.52044 87.0257 3.6266 84.5914 2.83786 82.4436C1.2833 78.2105 1.08227 74.7559 0.94934 72.4699C0.723425 68.5884 1.07539 64.4925 1.96694 60.6251C2.01114 60.4339 3.07524 55.8956 5.63136 51.6834C5.93159 51.1887 6.78582 49.9206 8.23004 48.8326C9.26041 48.0563 10.2086 47.6503 11.2138 47.5547C11.5235 47.5252 11.8388 47.5246 12.1508 47.5531C13.5724 47.6408 15.0114 47.5969 16.4278 47.4221C18.2584 47.1962 20.1512 46.9628 22.1785 45.862C22.5541 45.6583 22.9227 45.4301 23.2773 45.1829L23.4682 44.8791C24.8591 42.2883 26.5295 40.2157 28.2976 38.0217C32.1499 33.2418 35.7885 28.7271 39.7986 25.9477L39.8435 25.9166C40.3025 25.5993 41.3771 24.8561 42.12 23.5216C43.0043 21.9326 42.9677 20.3414 42.9454 19.3906L42.9447 19.369C42.8907 17.0299 42.8691 14.2698 42.8445 11.074C42.8341 9.72436 42.8233 8.32859 42.8092 6.84017C42.8085 6.7665 42.8161 6.69316 42.8318 6.62113C42.9994 5.85236 43.7446 3.23404 46.2968 1.81437C47.3822 1.21062 48.5939 0.933955 49.897 0.991907C50.9326 1.03807 51.7603 1.28265 52.205 1.41427C53.5808 1.82125 54.7922 2.54549 55.9084 3.62922C56.8428 4.53649 57.5615 5.54885 58.1953 6.44204C59.6039 8.42682 60.6136 10.6696 61.1964 13.1082C61.7664 15.4931 61.8807 17.9208 61.5461 20.5303C61.2544 22.8042 60.6693 24.9232 60.1035 26.9725C59.3734 29.6164 58.3793 32.2265 57.1486 34.7309C57.127 34.7764 56.8621 35.3435 56.7567 36.1486C56.6241 37.1597 56.8006 38.0666 57.2812 38.8445C58.2278 40.3765 60.2027 41.1253 62.0844 40.6649C62.142 40.6509 62.2009 40.642 62.2599 40.6384C66.769 40.3719 71.2719 40.4875 75.6442 40.9819C80.6107 41.5434 82.864 42.2811 84.7191 43.2158C84.8596 43.2865 85.0023 43.3579 85.1464 43.4296C87.1649 44.4364 89.6768 45.6894 91.2654 48.4885C92.5682 50.7837 92.6491 52.9633 92.6792 53.7838C92.8324 57.9269 90.831 60.5494 90.7458 60.6591C90.6397 60.7957 90.5399 60.9161 90.4492 61.0206C90.9076 61.3529 91.3332 61.7294 91.7218 62.1472C92.0519 62.5021 92.8776 63.4703 93.4133 64.7904C94.4351 67.3089 94.112 70.435 92.5702 72.9492C91.5729 74.5752 90.2586 75.6144 89.1045 76.2676C89.2351 76.5063 89.3573 76.7499 89.4696 76.9964C89.6431 77.3772 89.7967 77.772 89.926 78.1708C89.9299 78.1826 89.9335 78.1947 89.9368 78.2069C89.9387 78.2141 89.9882 78.3882 90.0331 78.5824C91.0166 82.8168 88.2074 86.3346 88.0872 86.4822C88.084 86.4865 88.0804 86.4904 88.0771 86.4947C86.9197 87.8718 85.5491 88.6622 84.395 89.115C85.2368 93.1346 82.8106 96.1472 82.7065 96.2739C82.7029 96.2781 82.6993 96.2824 82.696 96.2866C82.6417 96.3505 81.3314 97.8661 78.2193 99.2134C78.2124 99.2163 78.2059 99.2193 78.1993 99.2219L78.1771 99.2314C78.1771 99.2314 78.1142 99.2582 78.0543 99.2835C78.0451 99.2874 77.1123 99.6796 76.1504 99.9736C74.9632 100.336 73.7377 100.549 73.2659 100.624C71.7332 100.866 70.066 100.984 68.171 100.984L68.1713 100.984ZM57.4783 96.3246C57.6734 96.3246 57.865 96.3826 58.028 96.4926C59.6513 97.5868 61.3775 98.3356 63.1583 98.7177C64.5278 99.0117 65.7252 99.0133 68.1107 99.0163C68.1307 99.0163 68.151 99.0163 68.171 99.0163C69.9619 99.0163 71.5286 98.9063 72.9588 98.6804C73.295 98.6273 74.477 98.4279 75.5754 98.0923C76.4284 97.8317 77.2819 97.4745 77.2904 97.4709C77.3435 97.4483 77.3988 97.4247 77.3998 97.4244L77.4358 97.409C77.4358 97.409 77.4371 97.4084 77.4378 97.408C79.9657 96.3135 81.0868 95.1328 81.1929 95.0169C81.2629 94.9269 81.718 94.3231 82.0903 93.3923C82.6125 92.0869 82.7383 90.7743 82.4636 89.4908C82.4406 89.3838 82.4135 89.2741 82.4037 89.2351L82.2625 88.7565C82.1882 88.5043 82.218 88.2329 82.345 88.0027C82.4721 87.7726 82.6862 87.603 82.9393 87.5316C83.9513 87.2464 85.4008 86.6171 86.5638 85.2381C86.609 85.1808 87.1813 84.4431 87.6491 83.326C88.2748 81.8313 88.4323 80.3855 88.117 79.028C88.0898 78.9114 88.0601 78.8011 88.0486 78.7602C87.9432 78.4387 87.8191 78.1198 87.6789 77.8127C87.4589 77.3294 87.1944 76.8618 86.8928 76.4225C86.7262 76.1795 86.6771 75.875 86.7592 75.5921C86.8411 75.3092 87.0457 75.0781 87.3162 74.9619C88.376 74.5071 89.8569 73.6106 90.8932 71.9215C92.0961 69.9603 92.3698 67.4516 91.5902 65.531C91.1659 64.4849 90.4809 63.7028 90.2812 63.488C89.7413 62.9078 89.1097 62.4298 88.4035 62.0677C88.1134 61.919 87.916 61.6364 87.876 61.313C87.8361 60.9895 87.9589 60.6673 88.2041 60.4525L88.6481 60.0636C88.6481 60.0636 88.6491 60.0629 88.6494 60.0626C88.6497 60.0626 88.65 60.0619 88.6507 60.0613C88.6762 60.038 88.8933 59.8373 89.1932 59.4519C89.2099 59.4307 90.8385 57.238 90.7134 53.8574C90.6879 53.1682 90.6201 51.3377 89.5547 49.4606C88.2621 47.1834 86.2318 46.1704 84.2683 45.1911C84.1219 45.1181 83.9769 45.0457 83.8341 44.9737C82.4907 44.2969 80.6222 43.5256 75.4235 42.9379C71.1904 42.4592 66.8299 42.3452 62.4615 42.5987C61.1568 42.8992 59.8206 42.8072 58.5918 42.3312C57.328 41.8417 56.296 40.994 55.6078 39.8795C54.8934 38.7227 54.616 37.3446 54.8063 35.8939C54.949 34.8036 55.3075 34.0207 55.3779 33.8747C55.3789 33.8724 55.3799 33.8705 55.3812 33.8682C56.5586 31.4725 57.5097 28.9766 58.2075 26.4496C59.3023 22.4843 60.4345 18.3841 59.2833 13.5662C58.7595 11.3735 57.8535 9.35995 56.5913 7.58144C55.4048 5.90966 54.0604 4.01525 51.6474 3.30181C50.8708 3.07197 49.0517 2.53435 47.2538 3.53427C45.5205 4.49851 44.94 6.27211 44.7783 6.93839C44.792 8.38524 44.8025 9.744 44.8126 11.0592C44.8375 14.2469 44.8588 16.9998 44.9125 19.3241L44.9131 19.3457C44.938 20.421 44.9845 22.4224 43.8399 24.4789C42.874 26.2142 41.5349 27.1401 40.9632 27.5353L40.9203 27.5651C37.1433 30.1831 33.5912 34.5908 29.8302 39.2567C28.0399 41.4779 26.4942 43.3962 25.1871 45.8384C25.1763 45.8587 25.1649 45.8784 25.1527 45.8977L24.8397 46.3957C24.7723 46.5027 24.6852 46.5957 24.5827 46.6697C24.1139 47.0079 23.6211 47.318 23.1179 47.5914C20.7628 48.8699 18.5881 49.1381 16.6695 49.3748C15.1283 49.565 13.562 49.6125 12.0146 49.5159C12.0041 49.5153 11.9937 49.5146 11.9835 49.5136C11.7894 49.4953 11.5932 49.4953 11.4014 49.5136C11.0062 49.5513 10.3707 49.6845 9.41495 50.4045C8.21039 51.3118 7.50285 52.3942 7.31459 52.7046C4.92807 56.6378 3.89541 61.0242 3.88526 61.0681C3.03529 64.7554 2.69969 68.6588 2.9148 72.3563C3.04119 74.5264 3.23207 77.8061 4.68611 81.7658C5.448 83.8407 6.23576 85.9859 8.14917 88.0839C9.12584 89.1549 11.7098 91.988 14.9171 91.988C14.9378 91.988 14.9584 91.988 14.979 91.9877C15.3519 91.9834 16.3158 91.8122 17.9133 91.5283C18.9175 91.3499 19.6244 91.1862 20.2478 91.0421C20.9808 90.8725 21.6733 90.7121 22.6464 90.5743C23.735 90.42 24.8561 90.3329 25.9775 90.3162C26.1736 90.3133 26.3658 90.369 26.5302 90.476C29.8924 92.6713 33.4821 94.3055 37.1999 95.3329C43.0757 96.9565 48.3444 96.8007 52.1919 96.6871C53.9213 96.636 55.6648 96.5162 57.3735 96.3308C57.4089 96.3269 57.4442 96.3253 57.4796 96.3253L57.4783 96.3246Z" fill="#E17C00"/>
<path id="Vector_57" d="M21.2484 55.2562C21.1724 55.2562 21.0955 55.2473 21.0185 55.229C20.4901 55.1026 20.1643 54.5715 20.291 54.0434C20.6538 52.5285 21.105 51.0188 21.6328 49.5559C22.5708 46.9549 23.775 44.4299 25.2114 42.0506C25.4923 41.5857 26.0967 41.436 26.562 41.717C27.0269 41.9979 27.1765 42.6023 26.8956 43.0675C25.5257 45.3365 24.3778 47.744 23.4833 50.2235C22.9804 51.6179 22.5502 53.0573 22.2044 54.5015C22.0964 54.953 21.6933 55.2565 21.2487 55.2565L21.2484 55.2562Z" fill="#E17C00"/>
</g>
</g>
<defs>
<clipPath id="clip0_330_574">
<rect width="93.1197" height="100" fill="white" transform="translate(0.882812 0.984375)"/>
</clipPath>
</defs>
</svg>
